<mxfile host="65bd71144e">
    <diagram id="VqgyqqU54xISwpjxFuL8" name="Page-1">
        <mxGraphModel dx="1026" dy="635" grid="1" gridSize="10" guides="1" tooltips="1" connect="1" arrows="1" fold="1" page="1" pageScale="1" pageWidth="1654" pageHeight="1169" math="0" shadow="0">
            <root>
                <mxCell id="0"/>
                <mxCell id="1" parent="0"/>
                <mxCell id="hHO8GgRLqMGiPSyvXYs8-35" value="&lt;div&gt;&lt;b&gt;Notes&lt;/b&gt;&lt;/div&gt;&lt;ul&gt;&lt;li&gt;Assumed that every course has at least one offering&lt;/li&gt;&lt;/ul&gt;&lt;div&gt;&lt;b&gt;Double&amp;nbsp;check cardinality vs. min-max requirements&lt;/b&gt;&lt;/div&gt;&lt;div&gt;&lt;br&gt;&lt;/div&gt;&lt;div&gt;&lt;br&gt;&lt;/div&gt;" style="text;strokeColor=none;fillColor=none;html=1;whiteSpace=wrap;verticalAlign=middle;overflow=hidden;" parent="1" vertex="1">
                    <mxGeometry x="109" y="577" width="540" height="110" as="geometry"/>
                </mxCell>
                <mxCell id="32PP_eOArhLJbw_r9V2V-1" value="STUDENT" style="rounded=1;arcSize=10;whiteSpace=wrap;html=1;align=center;" parent="1" vertex="1">
                    <mxGeometry x="196" y="199" width="100" height="40" as="geometry"/>
                </mxCell>
                <mxCell id="32PP_eOArhLJbw_r9V2V-2" value="" style="endArrow=none;html=1;rounded=0;entryX=1;entryY=0.75;entryDx=0;entryDy=0;exitX=0.5;exitY=0;exitDx=0;exitDy=0;" parent="1" source="32PP_eOArhLJbw_r9V2V-3" target="32PP_eOArhLJbw_r9V2V-1" edge="1">
                    <mxGeometry relative="1" as="geometry">
                        <mxPoint x="324" y="253" as="sourcePoint"/>
                        <mxPoint x="400" y="129" as="targetPoint"/>
                    </mxGeometry>
                </mxCell>
                <mxCell id="32PP_eOArhLJbw_r9V2V-3" value="name" style="ellipse;whiteSpace=wrap;html=1;align=center;" parent="1" vertex="1">
                    <mxGeometry x="281" y="250" width="100" height="40" as="geometry"/>
                </mxCell>
                <mxCell id="32PP_eOArhLJbw_r9V2V-5" value="" style="endArrow=none;html=1;rounded=0;entryX=0.573;entryY=0.014;entryDx=0;entryDy=0;exitX=0.416;exitY=0.972;exitDx=0;exitDy=0;exitPerimeter=0;entryPerimeter=0;" parent="1" source="32PP_eOArhLJbw_r9V2V-6" target="32PP_eOArhLJbw_r9V2V-1" edge="1">
                    <mxGeometry relative="1" as="geometry">
                        <mxPoint x="284" y="169" as="sourcePoint"/>
                        <mxPoint x="273" y="119" as="targetPoint"/>
                    </mxGeometry>
                </mxCell>
                <mxCell id="32PP_eOArhLJbw_r9V2V-6" value="password" style="ellipse;whiteSpace=wrap;html=1;align=center;" parent="1" vertex="1">
                    <mxGeometry x="240" y="130" width="100" height="40" as="geometry"/>
                </mxCell>
                <mxCell id="32PP_eOArhLJbw_r9V2V-7" value="" style="endArrow=none;html=1;rounded=0;entryX=0;entryY=0;entryDx=0;entryDy=0;exitX=1;exitY=1;exitDx=0;exitDy=0;" parent="1" source="32PP_eOArhLJbw_r9V2V-8" target="32PP_eOArhLJbw_r9V2V-1" edge="1">
                    <mxGeometry relative="1" as="geometry">
                        <mxPoint x="315.5" y="54" as="sourcePoint"/>
                        <mxPoint x="41" y="139" as="targetPoint"/>
                    </mxGeometry>
                </mxCell>
                <mxCell id="32PP_eOArhLJbw_r9V2V-8" value="&lt;u&gt;studentID&lt;/u&gt;" style="ellipse;whiteSpace=wrap;html=1;align=center;" parent="1" vertex="1">
                    <mxGeometry x="81" y="149" width="100" height="40" as="geometry"/>
                </mxCell>
                <mxCell id="32PP_eOArhLJbw_r9V2V-9" value="" style="endArrow=none;html=1;rounded=0;entryX=0;entryY=0.75;entryDx=0;entryDy=0;exitX=0.5;exitY=0;exitDx=0;exitDy=0;" parent="1" source="32PP_eOArhLJbw_r9V2V-10" target="32PP_eOArhLJbw_r9V2V-1" edge="1">
                    <mxGeometry relative="1" as="geometry">
                        <mxPoint x="315.5" y="184" as="sourcePoint"/>
                        <mxPoint x="41" y="269" as="targetPoint"/>
                    </mxGeometry>
                </mxCell>
                <mxCell id="32PP_eOArhLJbw_r9V2V-10" value="email" style="ellipse;whiteSpace=wrap;html=1;align=center;" parent="1" vertex="1">
                    <mxGeometry x="90" y="260" width="100" height="40" as="geometry"/>
                </mxCell>
                <mxCell id="32PP_eOArhLJbw_r9V2V-13" value="" style="endArrow=none;html=1;rounded=0;exitX=0;exitY=0.5;exitDx=0;exitDy=0;entryX=1;entryY=0.5;entryDx=0;entryDy=0;" parent="1" source="32PP_eOArhLJbw_r9V2V-53" target="32PP_eOArhLJbw_r9V2V-1" edge="1">
                    <mxGeometry relative="1" as="geometry">
                        <mxPoint x="422" y="197" as="sourcePoint"/>
                        <mxPoint x="302" y="227" as="targetPoint"/>
                    </mxGeometry>
                </mxCell>
                <mxCell id="32PP_eOArhLJbw_r9V2V-14" value="" style="endArrow=none;html=1;rounded=0;entryX=1;entryY=0.5;entryDx=0;entryDy=0;exitX=0;exitY=0.5;exitDx=0;exitDy=0;" parent="1" source="32PP_eOArhLJbw_r9V2V-18" target="32PP_eOArhLJbw_r9V2V-53" edge="1">
                    <mxGeometry relative="1" as="geometry">
                        <mxPoint x="662" y="217" as="sourcePoint"/>
                        <mxPoint x="575.1199999999999" y="197" as="targetPoint"/>
                    </mxGeometry>
                </mxCell>
                <mxCell id="32PP_eOArhLJbw_r9V2V-15" value="" style="endArrow=none;html=1;rounded=0;exitX=0.613;exitY=0.979;exitDx=0;exitDy=0;entryX=0.307;entryY=0.185;entryDx=0;entryDy=0;exitPerimeter=0;entryPerimeter=0;" parent="1" source="32PP_eOArhLJbw_r9V2V-16" target="32PP_eOArhLJbw_r9V2V-53" edge="1">
                    <mxGeometry relative="1" as="geometry">
                        <mxPoint x="801" y="22" as="sourcePoint"/>
                        <mxPoint x="460.28" y="177" as="targetPoint"/>
                    </mxGeometry>
                </mxCell>
                <mxCell id="32PP_eOArhLJbw_r9V2V-16" value="grade" style="ellipse;whiteSpace=wrap;html=1;align=center;" parent="1" vertex="1">
                    <mxGeometry x="381" y="100" width="100" height="40" as="geometry"/>
                </mxCell>
                <mxCell id="32PP_eOArhLJbw_r9V2V-18" value="OFFERING" style="shape=ext;margin=3;double=1;whiteSpace=wrap;html=1;align=center;" parent="1" vertex="1">
                    <mxGeometry x="646.5" y="187" width="107.5" height="50" as="geometry"/>
                </mxCell>
                <mxCell id="32PP_eOArhLJbw_r9V2V-20" value="M" style="resizable=0;html=1;align=right;verticalAlign=bottom;" parent="1" connectable="0" vertex="1">
                    <mxGeometry x="578.1207469103152" y="191.998422890111" as="geometry"/>
                </mxCell>
                <mxCell id="32PP_eOArhLJbw_r9V2V-24" value="N" style="resizable=0;html=1;align=right;verticalAlign=bottom;" parent="1" connectable="0" vertex="1">
                    <mxGeometry x="412.00074691031523" y="156.998422890111" as="geometry">
                        <mxPoint y="30" as="offset"/>
                    </mxGeometry>
                </mxCell>
                <mxCell id="32PP_eOArhLJbw_r9V2V-25" value="COURSE" style="rounded=1;arcSize=10;whiteSpace=wrap;html=1;align=center;" parent="1" vertex="1">
                    <mxGeometry x="573" y="406" width="100" height="40" as="geometry"/>
                </mxCell>
                <mxCell id="32PP_eOArhLJbw_r9V2V-27" value="OFFERS" style="shape=rhombus;double=1;perimeter=rhombusPerimeter;whiteSpace=wrap;html=1;align=center;" parent="1" vertex="1">
                    <mxGeometry x="587.5" y="280.03" width="160" height="80" as="geometry"/>
                </mxCell>
                <mxCell id="32PP_eOArhLJbw_r9V2V-28" value="1" style="resizable=0;html=1;align=right;verticalAlign=bottom;" parent="1" connectable="0" vertex="1">
                    <mxGeometry x="651.5032755431994" y="372.99775851439995" as="geometry"/>
                </mxCell>
                <mxCell id="32PP_eOArhLJbw_r9V2V-29" value="N" style="resizable=0;html=1;align=right;verticalAlign=bottom;" parent="1" connectable="0" vertex="1">
                    <mxGeometry x="658.8710772134727" y="277.99556039807544" as="geometry">
                        <mxPoint x="1" y="5" as="offset"/>
                    </mxGeometry>
                </mxCell>
                <mxCell id="32PP_eOArhLJbw_r9V2V-31" value="" style="endArrow=none;html=1;rounded=0;entryX=0.5;entryY=0;entryDx=0;entryDy=0;exitX=0.5;exitY=1;exitDx=0;exitDy=0;" parent="1" source="32PP_eOArhLJbw_r9V2V-18" target="32PP_eOArhLJbw_r9V2V-27" edge="1">
                    <mxGeometry relative="1" as="geometry">
                        <mxPoint x="700.75" y="222" as="sourcePoint"/>
                        <mxPoint x="593.5" y="222" as="targetPoint"/>
                    </mxGeometry>
                </mxCell>
                <mxCell id="32PP_eOArhLJbw_r9V2V-33" value="" style="endArrow=none;html=1;rounded=0;exitX=0.5;exitY=0;exitDx=0;exitDy=0;entryX=0.5;entryY=1;entryDx=0;entryDy=0;" parent="1" source="32PP_eOArhLJbw_r9V2V-34" target="32PP_eOArhLJbw_r9V2V-25" edge="1">
                    <mxGeometry relative="1" as="geometry">
                        <mxPoint x="941.25" y="410" as="sourcePoint"/>
                        <mxPoint x="614.25" y="560" as="targetPoint"/>
                    </mxGeometry>
                </mxCell>
                <mxCell id="32PP_eOArhLJbw_r9V2V-34" value="courseID" style="ellipse;whiteSpace=wrap;html=1;align=center;fontStyle=4" parent="1" vertex="1">
                    <mxGeometry x="543.12" y="481" width="100" height="40" as="geometry"/>
                </mxCell>
                <mxCell id="32PP_eOArhLJbw_r9V2V-35" value="" style="endArrow=none;html=1;rounded=0;exitX=0.5;exitY=1;exitDx=0;exitDy=0;" parent="1" source="32PP_eOArhLJbw_r9V2V-37" target="32PP_eOArhLJbw_r9V2V-18" edge="1">
                    <mxGeometry relative="1" as="geometry">
                        <mxPoint x="738.3000000000002" y="146.15999999999985" as="sourcePoint"/>
                        <mxPoint x="856.3750000000002" y="187" as="targetPoint"/>
                    </mxGeometry>
                </mxCell>
                <mxCell id="32PP_eOArhLJbw_r9V2V-37" value="&lt;span style=&quot;border-bottom: 1px dotted&quot;&gt;sectionNum&lt;/span&gt;" style="ellipse;whiteSpace=wrap;html=1;align=center;" parent="1" vertex="1">
                    <mxGeometry x="672" y="117" width="100" height="40" as="geometry"/>
                </mxCell>
                <mxCell id="32PP_eOArhLJbw_r9V2V-41" value="" style="endArrow=none;html=1;rounded=0;exitX=0.01;exitY=0.363;exitDx=0;exitDy=0;entryX=1;entryY=0.5;entryDx=0;entryDy=0;exitPerimeter=0;" parent="1" source="32PP_eOArhLJbw_r9V2V-43" target="32PP_eOArhLJbw_r9V2V-25" edge="1">
                    <mxGeometry relative="1" as="geometry">
                        <mxPoint x="483.23279132484436" y="440.80901460527116" as="sourcePoint"/>
                        <mxPoint x="666" y="425.9999999999998" as="targetPoint"/>
                    </mxGeometry>
                </mxCell>
                <mxCell id="32PP_eOArhLJbw_r9V2V-43" value="courseName" style="ellipse;whiteSpace=wrap;html=1;align=center;" parent="1" vertex="1">
                    <mxGeometry x="730" y="406" width="100" height="40" as="geometry"/>
                </mxCell>
                <mxCell id="32PP_eOArhLJbw_r9V2V-47" value="REQUIRES" style="shape=rhombus;perimeter=rhombusPerimeter;whiteSpace=wrap;html=1;align=center;" parent="1" vertex="1">
                    <mxGeometry x="341.5" y="383.5" width="150" height="85" as="geometry"/>
                </mxCell>
                <mxCell id="32PP_eOArhLJbw_r9V2V-48" value="" style="endArrow=none;html=1;rounded=0;exitX=0;exitY=0.375;exitDx=0;exitDy=0;exitPerimeter=0;entryX=0.5;entryY=0;entryDx=0;entryDy=0;" parent="1" source="32PP_eOArhLJbw_r9V2V-25" target="32PP_eOArhLJbw_r9V2V-47" edge="1">
                    <mxGeometry relative="1" as="geometry">
                        <mxPoint x="523" y="330" as="sourcePoint"/>
                        <mxPoint x="407" y="381" as="targetPoint"/>
                    </mxGeometry>
                </mxCell>
                <mxCell id="32PP_eOArhLJbw_r9V2V-49" value="" style="endArrow=none;html=1;rounded=0;exitX=0.011;exitY=0.616;exitDx=0;exitDy=0;entryX=0.5;entryY=1;entryDx=0;entryDy=0;exitPerimeter=0;" parent="1" source="32PP_eOArhLJbw_r9V2V-25" target="32PP_eOArhLJbw_r9V2V-47" edge="1">
                    <mxGeometry relative="1" as="geometry">
                        <mxPoint x="587" y="431" as="sourcePoint"/>
                        <mxPoint x="414.5" y="393.5" as="targetPoint"/>
                    </mxGeometry>
                </mxCell>
                <mxCell id="32PP_eOArhLJbw_r9V2V-51" value="1" style="resizable=0;html=1;align=right;verticalAlign=bottom;" parent="1" connectable="0" vertex="1">
                    <mxGeometry x="421.0032755431994" y="380.49775851439995" as="geometry"/>
                </mxCell>
                <mxCell id="32PP_eOArhLJbw_r9V2V-52" value="N" style="resizable=0;html=1;align=right;verticalAlign=bottom;direction=south;" parent="1" connectable="0" vertex="1">
                    <mxGeometry x="422.0032755431994" y="489.99775851439995" as="geometry"/>
                </mxCell>
                <mxCell id="32PP_eOArhLJbw_r9V2V-53" value="REGISTERS" style="shape=rhombus;double=1;perimeter=rhombusPerimeter;whiteSpace=wrap;html=1;align=center;" parent="1" vertex="1">
                    <mxGeometry x="412" y="157" width="160" height="80" as="geometry"/>
                </mxCell>
                <mxCell id="32PP_eOArhLJbw_r9V2V-54" value="" style="shape=link;html=1;rounded=0;entryX=0.5;entryY=0;entryDx=0;entryDy=0;exitX=0.5;exitY=1;exitDx=0;exitDy=0;" parent="1" source="32PP_eOArhLJbw_r9V2V-27" target="32PP_eOArhLJbw_r9V2V-25" edge="1">
                    <mxGeometry relative="1" as="geometry">
                        <mxPoint x="682.5" y="364.03" as="sourcePoint"/>
                        <mxPoint x="666" y="154" as="targetPoint"/>
                    </mxGeometry>
                </mxCell>
                <mxCell id="32PP_eOArhLJbw_r9V2V-57" value="Course" style="resizable=0;html=1;align=right;verticalAlign=bottom;" parent="1" connectable="0" vertex="1">
                    <mxGeometry x="507.00074691031523" y="395.998422890111" as="geometry"/>
                </mxCell>
                <mxCell id="32PP_eOArhLJbw_r9V2V-58" value="Pre-requisite" style="resizable=0;html=1;align=right;verticalAlign=bottom;" parent="1" connectable="0" vertex="1">
                    <mxGeometry x="532.5007469103152" y="472.998422890111" as="geometry"/>
                </mxCell>
                <mxCell id="32PP_eOArhLJbw_r9V2V-59" value="department" style="ellipse;whiteSpace=wrap;html=1;align=center;" parent="1" vertex="1">
                    <mxGeometry x="620" y="541" width="100" height="40" as="geometry"/>
                </mxCell>
                <mxCell id="32PP_eOArhLJbw_r9V2V-60" value="" style="endArrow=none;html=1;rounded=0;entryX=0.5;entryY=0;entryDx=0;entryDy=0;exitX=0.235;exitY=0.921;exitDx=0;exitDy=0;exitPerimeter=0;" parent="1" source="32PP_eOArhLJbw_r9V2V-112" target="32PP_eOArhLJbw_r9V2V-59" edge="1">
                    <mxGeometry relative="1" as="geometry">
                        <mxPoint x="760" y="451" as="sourcePoint"/>
                        <mxPoint x="676" y="435.9999999999998" as="targetPoint"/>
                    </mxGeometry>
                </mxCell>
                <mxCell id="32PP_eOArhLJbw_r9V2V-61" value="number" style="ellipse;whiteSpace=wrap;html=1;align=center;" parent="1" vertex="1">
                    <mxGeometry x="750" y="541.03" width="100" height="40" as="geometry"/>
                </mxCell>
                <mxCell id="32PP_eOArhLJbw_r9V2V-62" value="" style="endArrow=none;html=1;rounded=0;entryX=0.5;entryY=0;entryDx=0;entryDy=0;exitX=1;exitY=1;exitDx=0;exitDy=0;" parent="1" source="32PP_eOArhLJbw_r9V2V-112" target="32PP_eOArhLJbw_r9V2V-61" edge="1">
                    <mxGeometry relative="1" as="geometry">
                        <mxPoint x="780" y="451" as="sourcePoint"/>
                        <mxPoint x="717.0000000000002" y="490.9999999999998" as="targetPoint"/>
                    </mxGeometry>
                </mxCell>
                <mxCell id="32PP_eOArhLJbw_r9V2V-63" value="" style="shape=table;startSize=0;container=1;collapsible=0;childLayout=tableLayout;fontSize=14;" parent="1" vertex="1">
                    <mxGeometry x="936" y="128.02999999999997" width="437" height="40" as="geometry"/>
                </mxCell>
                <mxCell id="32PP_eOArhLJbw_r9V2V-64" value="" style="shape=tableRow;horizontal=0;startSize=0;swimlaneHead=0;swimlaneBody=0;top=0;left=0;bottom=0;right=0;collapsible=0;dropTarget=0;fillColor=none;points=[[0,0.5],[1,0.5]];portConstraint=eastwest;fontSize=14;" parent="32PP_eOArhLJbw_r9V2V-63" vertex="1">
                    <mxGeometry width="437" height="40" as="geometry"/>
                </mxCell>
                <mxCell id="32PP_eOArhLJbw_r9V2V-65" value="&lt;u&gt;studentID&lt;/u&gt;" style="shape=partialRectangle;html=1;whiteSpace=wrap;connectable=0;overflow=hidden;fillColor=none;top=0;left=0;bottom=0;right=0;pointerEvents=1;fontSize=14;" parent="32PP_eOArhLJbw_r9V2V-64" vertex="1">
                    <mxGeometry width="88" height="40" as="geometry">
                        <mxRectangle width="88" height="40" as="alternateBounds"/>
                    </mxGeometry>
                </mxCell>
                <mxCell id="32PP_eOArhLJbw_r9V2V-66" value="fName" style="shape=partialRectangle;html=1;whiteSpace=wrap;connectable=0;overflow=hidden;fillColor=none;top=0;left=0;bottom=0;right=0;pointerEvents=1;fontSize=14;" parent="32PP_eOArhLJbw_r9V2V-64" vertex="1">
                    <mxGeometry x="88" width="87" height="40" as="geometry">
                        <mxRectangle width="87" height="40" as="alternateBounds"/>
                    </mxGeometry>
                </mxCell>
                <mxCell id="32PP_eOArhLJbw_r9V2V-67" value="lName" style="shape=partialRectangle;html=1;whiteSpace=wrap;connectable=0;overflow=hidden;fillColor=none;top=0;left=0;bottom=0;right=0;pointerEvents=1;fontSize=14;" parent="32PP_eOArhLJbw_r9V2V-64" vertex="1">
                    <mxGeometry x="175" width="88" height="40" as="geometry">
                        <mxRectangle width="88" height="40" as="alternateBounds"/>
                    </mxGeometry>
                </mxCell>
                <mxCell id="32PP_eOArhLJbw_r9V2V-68" value="email" style="shape=partialRectangle;html=1;whiteSpace=wrap;connectable=0;overflow=hidden;fillColor=none;top=0;left=0;bottom=0;right=0;pointerEvents=1;fontSize=14;" parent="32PP_eOArhLJbw_r9V2V-64" vertex="1">
                    <mxGeometry x="263" width="87" height="40" as="geometry">
                        <mxRectangle width="87" height="40" as="alternateBounds"/>
                    </mxGeometry>
                </mxCell>
                <mxCell id="32PP_eOArhLJbw_r9V2V-111" value="password" style="shape=partialRectangle;html=1;whiteSpace=wrap;connectable=0;overflow=hidden;fillColor=none;top=0;left=0;bottom=0;right=0;pointerEvents=1;fontSize=14;" parent="32PP_eOArhLJbw_r9V2V-64" vertex="1">
                    <mxGeometry x="350" width="87" height="40" as="geometry">
                        <mxRectangle width="87" height="40" as="alternateBounds"/>
                    </mxGeometry>
                </mxCell>
                <mxCell id="32PP_eOArhLJbw_r9V2V-69" value="&lt;font style=&quot;font-size: 18px;&quot;&gt;STUDENT&lt;/font&gt;" style="text;strokeColor=none;fillColor=none;html=1;fontSize=24;fontStyle=1;verticalAlign=middle;align=center;" parent="1" vertex="1">
                    <mxGeometry x="933" y="90" width="100" height="40" as="geometry"/>
                </mxCell>
                <mxCell id="32PP_eOArhLJbw_r9V2V-70" value="fName" style="ellipse;whiteSpace=wrap;html=1;align=center;" parent="1" vertex="1">
                    <mxGeometry x="226.5" y="310" width="100" height="40" as="geometry"/>
                </mxCell>
                <mxCell id="32PP_eOArhLJbw_r9V2V-71" value="" style="endArrow=none;html=1;rounded=0;entryX=0.5;entryY=0;entryDx=0;entryDy=0;exitX=0.434;exitY=1.016;exitDx=0;exitDy=0;exitPerimeter=0;" parent="1" source="32PP_eOArhLJbw_r9V2V-3" target="32PP_eOArhLJbw_r9V2V-70" edge="1">
                    <mxGeometry relative="1" as="geometry">
                        <mxPoint x="320" y="300" as="sourcePoint"/>
                        <mxPoint x="430" y="234.49999999999977" as="targetPoint"/>
                    </mxGeometry>
                </mxCell>
                <mxCell id="32PP_eOArhLJbw_r9V2V-72" value="lName" style="ellipse;whiteSpace=wrap;html=1;align=center;" parent="1" vertex="1">
                    <mxGeometry x="340" y="310" width="100" height="40" as="geometry"/>
                </mxCell>
                <mxCell id="32PP_eOArhLJbw_r9V2V-73" value="" style="endArrow=none;html=1;rounded=0;entryX=0.5;entryY=0;entryDx=0;entryDy=0;exitX=0.627;exitY=1.016;exitDx=0;exitDy=0;exitPerimeter=0;" parent="1" source="32PP_eOArhLJbw_r9V2V-3" target="32PP_eOArhLJbw_r9V2V-72" edge="1">
                    <mxGeometry relative="1" as="geometry">
                        <mxPoint x="347.1199999999999" y="319.5" as="sourcePoint"/>
                        <mxPoint x="471.0000000000002" y="289.4999999999998" as="targetPoint"/>
                    </mxGeometry>
                </mxCell>
                <mxCell id="32PP_eOArhLJbw_r9V2V-74" value="" style="shape=table;startSize=0;container=1;collapsible=0;childLayout=tableLayout;fontSize=14;" parent="1" vertex="1">
                    <mxGeometry x="1252" y="259.97" width="263" height="39.99000000000001" as="geometry"/>
                </mxCell>
                <mxCell id="32PP_eOArhLJbw_r9V2V-75" value="" style="shape=tableRow;horizontal=0;startSize=0;swimlaneHead=0;swimlaneBody=0;top=0;left=0;bottom=0;right=0;collapsible=0;dropTarget=0;fillColor=none;points=[[0,0.5],[1,0.5]];portConstraint=eastwest;fontSize=14;movable=0;resizable=0;rotatable=0;deletable=0;editable=0;connectable=0;" parent="32PP_eOArhLJbw_r9V2V-74" vertex="1">
                    <mxGeometry width="263" height="40" as="geometry"/>
                </mxCell>
                <mxCell id="32PP_eOArhLJbw_r9V2V-76" value="&lt;u&gt;studentID&lt;/u&gt;" style="shape=partialRectangle;html=1;whiteSpace=wrap;connectable=0;overflow=hidden;fillColor=none;top=0;left=0;bottom=0;right=0;pointerEvents=1;fontSize=14;" parent="32PP_eOArhLJbw_r9V2V-75" vertex="1">
                    <mxGeometry width="88" height="40" as="geometry">
                        <mxRectangle width="88" height="40" as="alternateBounds"/>
                    </mxGeometry>
                </mxCell>
                <mxCell id="32PP_eOArhLJbw_r9V2V-77" value="&lt;u&gt;courseID&lt;/u&gt;" style="shape=partialRectangle;html=1;whiteSpace=wrap;connectable=0;overflow=hidden;fillColor=none;top=0;left=0;bottom=0;right=0;pointerEvents=1;fontSize=14;" parent="32PP_eOArhLJbw_r9V2V-75" vertex="1">
                    <mxGeometry x="88" width="87" height="40" as="geometry">
                        <mxRectangle width="87" height="40" as="alternateBounds"/>
                    </mxGeometry>
                </mxCell>
                <mxCell id="32PP_eOArhLJbw_r9V2V-78" value="sectionNum" style="shape=partialRectangle;html=1;whiteSpace=wrap;connectable=0;overflow=hidden;fillColor=none;top=0;left=0;bottom=0;right=0;pointerEvents=1;fontSize=14;" parent="32PP_eOArhLJbw_r9V2V-75" vertex="1">
                    <mxGeometry x="175" width="88" height="40" as="geometry">
                        <mxRectangle width="88" height="40" as="alternateBounds"/>
                    </mxGeometry>
                </mxCell>
                <mxCell id="32PP_eOArhLJbw_r9V2V-100" value="" style="endArrow=classic;html=1;rounded=0;fontSize=18;movable=1;resizable=1;rotatable=1;deletable=1;editable=1;connectable=1;entryX=0.174;entryY=1.002;entryDx=0;entryDy=0;entryPerimeter=0;" parent="32PP_eOArhLJbw_r9V2V-74" target="32PP_eOArhLJbw_r9V2V-93" edge="1">
                    <mxGeometry width="50" height="50" relative="1" as="geometry">
                        <mxPoint x="138" y="170.02999999999997" as="sourcePoint"/>
                        <mxPoint x="48.55000000000018" y="310.04999999999995" as="targetPoint"/>
                        <Array as="points">
                            <mxPoint x="138" y="190.02999999999997"/>
                            <mxPoint x="18" y="190.02999999999997"/>
                            <mxPoint x="-252" y="190.02999999999997"/>
                        </Array>
                    </mxGeometry>
                </mxCell>
                <mxCell id="32PP_eOArhLJbw_r9V2V-80" value="&lt;font size=&quot;4&quot;&gt;REGISTRATION&lt;/font&gt;" style="text;strokeColor=none;fillColor=none;html=1;fontSize=24;fontStyle=1;verticalAlign=middle;align=center;" parent="1" vertex="1">
                    <mxGeometry x="1271" y="222.97" width="100" height="40" as="geometry"/>
                </mxCell>
                <mxCell id="32PP_eOArhLJbw_r9V2V-81" value="" style="shape=table;startSize=0;container=1;collapsible=0;childLayout=tableLayout;fontSize=14;" parent="1" vertex="1">
                    <mxGeometry x="940" y="510.03" width="175" height="40" as="geometry"/>
                </mxCell>
                <mxCell id="32PP_eOArhLJbw_r9V2V-82" value="" style="shape=tableRow;horizontal=0;startSize=0;swimlaneHead=0;swimlaneBody=0;top=0;left=0;bottom=0;right=0;collapsible=0;dropTarget=0;fillColor=none;points=[[0,0.5],[1,0.5]];portConstraint=eastwest;fontSize=14;" parent="32PP_eOArhLJbw_r9V2V-81" vertex="1">
                    <mxGeometry width="175" height="40" as="geometry"/>
                </mxCell>
                <mxCell id="32PP_eOArhLJbw_r9V2V-83" value="&lt;u&gt;courseID&lt;/u&gt;" style="shape=partialRectangle;html=1;whiteSpace=wrap;connectable=0;overflow=hidden;fillColor=none;top=0;left=0;bottom=0;right=0;pointerEvents=1;fontSize=14;" parent="32PP_eOArhLJbw_r9V2V-82" vertex="1">
                    <mxGeometry width="88" height="40" as="geometry">
                        <mxRectangle width="88" height="40" as="alternateBounds"/>
                    </mxGeometry>
                </mxCell>
                <mxCell id="32PP_eOArhLJbw_r9V2V-84" value="&lt;u&gt;sectionNum&lt;/u&gt;" style="shape=partialRectangle;html=1;whiteSpace=wrap;connectable=0;overflow=hidden;fillColor=none;top=0;left=0;bottom=0;right=0;pointerEvents=1;fontSize=14;" parent="32PP_eOArhLJbw_r9V2V-82" vertex="1">
                    <mxGeometry x="88" width="87" height="40" as="geometry">
                        <mxRectangle width="87" height="40" as="alternateBounds"/>
                    </mxGeometry>
                </mxCell>
                <mxCell id="32PP_eOArhLJbw_r9V2V-87" value="&lt;font size=&quot;4&quot;&gt;OFFERING&lt;/font&gt;" style="text;strokeColor=none;fillColor=none;html=1;fontSize=24;fontStyle=1;verticalAlign=middle;align=center;" parent="1" vertex="1">
                    <mxGeometry x="941" y="470" width="100" height="40" as="geometry"/>
                </mxCell>
                <mxCell id="32PP_eOArhLJbw_r9V2V-91" value="" style="endArrow=classic;html=1;rounded=0;fontSize=18;entryX=0.101;entryY=0.999;entryDx=0;entryDy=0;entryPerimeter=0;" parent="1" target="32PP_eOArhLJbw_r9V2V-64" edge="1">
                    <mxGeometry width="50" height="50" relative="1" as="geometry">
                        <mxPoint x="980" y="300" as="sourcePoint"/>
                        <mxPoint x="820" y="268" as="targetPoint"/>
                        <Array as="points">
                            <mxPoint x="980" y="300"/>
                            <mxPoint x="980" y="320"/>
                            <mxPoint x="930" y="320"/>
                            <mxPoint x="930" y="200"/>
                            <mxPoint x="981" y="200"/>
                        </Array>
                    </mxGeometry>
                </mxCell>
                <mxCell id="32PP_eOArhLJbw_r9V2V-92" value="" style="shape=table;startSize=0;container=1;collapsible=0;childLayout=tableLayout;fontSize=14;" parent="1" vertex="1">
                    <mxGeometry x="939" y="390.03" width="350" height="40" as="geometry"/>
                </mxCell>
                <mxCell id="32PP_eOArhLJbw_r9V2V-93" value="" style="shape=tableRow;horizontal=0;startSize=0;swimlaneHead=0;swimlaneBody=0;top=0;left=0;bottom=0;right=0;collapsible=0;dropTarget=0;fillColor=none;points=[[0,0.5],[1,0.5]];portConstraint=eastwest;fontSize=14;" parent="32PP_eOArhLJbw_r9V2V-92" vertex="1">
                    <mxGeometry width="350" height="40" as="geometry"/>
                </mxCell>
                <mxCell id="32PP_eOArhLJbw_r9V2V-94" value="&lt;u&gt;courseID&lt;/u&gt;" style="shape=partialRectangle;html=1;whiteSpace=wrap;connectable=0;overflow=hidden;fillColor=none;top=0;left=0;bottom=0;right=0;pointerEvents=1;fontSize=14;" parent="32PP_eOArhLJbw_r9V2V-93" vertex="1">
                    <mxGeometry width="88" height="40" as="geometry">
                        <mxRectangle width="88" height="40" as="alternateBounds"/>
                    </mxGeometry>
                </mxCell>
                <mxCell id="32PP_eOArhLJbw_r9V2V-95" value="codeDept" style="shape=partialRectangle;html=1;whiteSpace=wrap;connectable=0;overflow=hidden;fillColor=none;top=0;left=0;bottom=0;right=0;pointerEvents=1;fontSize=14;" parent="32PP_eOArhLJbw_r9V2V-93" vertex="1">
                    <mxGeometry x="88" width="87" height="40" as="geometry">
                        <mxRectangle width="87" height="40" as="alternateBounds"/>
                    </mxGeometry>
                </mxCell>
                <mxCell id="32PP_eOArhLJbw_r9V2V-96" value="codeNum" style="shape=partialRectangle;html=1;whiteSpace=wrap;connectable=0;overflow=hidden;fillColor=none;top=0;left=0;bottom=0;right=0;pointerEvents=1;fontSize=14;" parent="32PP_eOArhLJbw_r9V2V-93" vertex="1">
                    <mxGeometry x="175" width="88" height="40" as="geometry">
                        <mxRectangle width="88" height="40" as="alternateBounds"/>
                    </mxGeometry>
                </mxCell>
                <mxCell id="32PP_eOArhLJbw_r9V2V-97" value="courseName" style="shape=partialRectangle;html=1;whiteSpace=wrap;connectable=0;overflow=hidden;fillColor=none;top=0;left=0;bottom=0;right=0;pointerEvents=1;fontSize=14;" parent="32PP_eOArhLJbw_r9V2V-93" vertex="1">
                    <mxGeometry x="263" width="87" height="40" as="geometry">
                        <mxRectangle width="87" height="40" as="alternateBounds"/>
                    </mxGeometry>
                </mxCell>
                <mxCell id="32PP_eOArhLJbw_r9V2V-98" value="&lt;font size=&quot;4&quot;&gt;COURSE&lt;/font&gt;" style="text;strokeColor=none;fillColor=none;html=1;fontSize=24;fontStyle=1;verticalAlign=middle;align=center;" parent="1" vertex="1">
                    <mxGeometry x="933" y="350" width="100" height="40" as="geometry"/>
                </mxCell>
                <mxCell id="32PP_eOArhLJbw_r9V2V-103" value="" style="endArrow=classic;html=1;rounded=0;fontSize=18;exitX=0.113;exitY=1.002;exitDx=0;exitDy=0;exitPerimeter=0;" parent="1" edge="1">
                    <mxGeometry width="50" height="50" relative="1" as="geometry">
                        <mxPoint x="984.5500000000002" y="551.05" as="sourcePoint"/>
                        <mxPoint x="980" y="430" as="targetPoint"/>
                        <Array as="points">
                            <mxPoint x="985" y="580"/>
                            <mxPoint x="910" y="580"/>
                            <mxPoint x="910" y="450"/>
                            <mxPoint x="980" y="450"/>
                        </Array>
                    </mxGeometry>
                </mxCell>
                <mxCell id="32PP_eOArhLJbw_r9V2V-110" value="" style="endArrow=classic;html=1;rounded=0;fontSize=18;entryX=0.686;entryY=0.999;entryDx=0;entryDy=0;entryPerimeter=0;" parent="1" target="32PP_eOArhLJbw_r9V2V-82" edge="1">
                    <mxGeometry width="50" height="50" relative="1" as="geometry">
                        <mxPoint x="1470" y="300" as="sourcePoint"/>
                        <mxPoint x="1064.5500000000002" y="719.06" as="targetPoint"/>
                        <Array as="points">
                            <mxPoint x="1470" y="340"/>
                            <mxPoint x="1540" y="340"/>
                            <mxPoint x="1540" y="580"/>
                            <mxPoint x="1060" y="580"/>
                        </Array>
                    </mxGeometry>
                </mxCell>
                <mxCell id="32PP_eOArhLJbw_r9V2V-112" value="courseCode" style="ellipse;whiteSpace=wrap;html=1;align=center;" parent="1" vertex="1">
                    <mxGeometry x="680" y="478" width="100" height="40" as="geometry"/>
                </mxCell>
                <mxCell id="32PP_eOArhLJbw_r9V2V-113" value="" style="endArrow=none;html=1;rounded=0;exitX=0.487;exitY=-0.058;exitDx=0;exitDy=0;exitPerimeter=0;" parent="1" source="32PP_eOArhLJbw_r9V2V-112" target="32PP_eOArhLJbw_r9V2V-25" edge="1">
                    <mxGeometry relative="1" as="geometry">
                        <mxPoint x="740" y="500" as="sourcePoint"/>
                        <mxPoint x="683" y="436" as="targetPoint"/>
                    </mxGeometry>
                </mxCell>
                <mxCell id="32PP_eOArhLJbw_r9V2V-114" value="" style="shape=table;startSize=0;container=1;collapsible=0;childLayout=tableLayout;fontSize=14;" parent="1" vertex="1">
                    <mxGeometry x="940" y="260" width="263" height="40" as="geometry"/>
                </mxCell>
                <mxCell id="32PP_eOArhLJbw_r9V2V-115" value="" style="shape=tableRow;horizontal=0;startSize=0;swimlaneHead=0;swimlaneBody=0;top=0;left=0;bottom=0;right=0;collapsible=0;dropTarget=0;fillColor=none;points=[[0,0.5],[1,0.5]];portConstraint=eastwest;fontSize=14;" parent="32PP_eOArhLJbw_r9V2V-114" vertex="1">
                    <mxGeometry width="263" height="40" as="geometry"/>
                </mxCell>
                <mxCell id="32PP_eOArhLJbw_r9V2V-116" value="&lt;u&gt;studentID&lt;/u&gt;" style="shape=partialRectangle;html=1;whiteSpace=wrap;connectable=0;overflow=hidden;fillColor=none;top=0;left=0;bottom=0;right=0;pointerEvents=1;fontSize=14;" parent="32PP_eOArhLJbw_r9V2V-115" vertex="1">
                    <mxGeometry width="88" height="40" as="geometry">
                        <mxRectangle width="88" height="40" as="alternateBounds"/>
                    </mxGeometry>
                </mxCell>
                <mxCell id="32PP_eOArhLJbw_r9V2V-117" value="&lt;u&gt;courseID&lt;/u&gt;" style="shape=partialRectangle;html=1;whiteSpace=wrap;connectable=0;overflow=hidden;fillColor=none;top=0;left=0;bottom=0;right=0;pointerEvents=1;fontSize=14;" parent="32PP_eOArhLJbw_r9V2V-115" vertex="1">
                    <mxGeometry x="88" width="87" height="40" as="geometry">
                        <mxRectangle width="87" height="40" as="alternateBounds"/>
                    </mxGeometry>
                </mxCell>
                <mxCell id="32PP_eOArhLJbw_r9V2V-118" value="grade" style="shape=partialRectangle;html=1;whiteSpace=wrap;connectable=0;overflow=hidden;fillColor=none;top=0;left=0;bottom=0;right=0;pointerEvents=1;fontSize=14;" parent="32PP_eOArhLJbw_r9V2V-115" vertex="1">
                    <mxGeometry x="175" width="88" height="40" as="geometry">
                        <mxRectangle width="88" height="40" as="alternateBounds"/>
                    </mxGeometry>
                </mxCell>
                <mxCell id="32PP_eOArhLJbw_r9V2V-120" value="&lt;font size=&quot;4&quot;&gt;HISTORY&lt;/font&gt;" style="text;strokeColor=none;fillColor=none;html=1;fontSize=24;fontStyle=1;verticalAlign=middle;align=center;" parent="1" vertex="1">
                    <mxGeometry x="933" y="221.97" width="100" height="40" as="geometry"/>
                </mxCell>
                <mxCell id="32PP_eOArhLJbw_r9V2V-121" value="" style="shape=table;startSize=0;container=1;collapsible=0;childLayout=tableLayout;fontSize=14;" parent="1" vertex="1">
                    <mxGeometry x="1343" y="391.03" width="175" height="40" as="geometry"/>
                </mxCell>
                <mxCell id="32PP_eOArhLJbw_r9V2V-122" value="" style="shape=tableRow;horizontal=0;startSize=0;swimlaneHead=0;swimlaneBody=0;top=0;left=0;bottom=0;right=0;collapsible=0;dropTarget=0;fillColor=none;points=[[0,0.5],[1,0.5]];portConstraint=eastwest;fontSize=14;" parent="32PP_eOArhLJbw_r9V2V-121" vertex="1">
                    <mxGeometry width="175" height="40" as="geometry"/>
                </mxCell>
                <mxCell id="32PP_eOArhLJbw_r9V2V-123" value="&lt;u&gt;courseID&lt;/u&gt;" style="shape=partialRectangle;html=1;whiteSpace=wrap;connectable=0;overflow=hidden;fillColor=none;top=0;left=0;bottom=0;right=0;pointerEvents=1;fontSize=14;" parent="32PP_eOArhLJbw_r9V2V-122" vertex="1">
                    <mxGeometry width="88" height="40" as="geometry">
                        <mxRectangle width="88" height="40" as="alternateBounds"/>
                    </mxGeometry>
                </mxCell>
                <mxCell id="32PP_eOArhLJbw_r9V2V-124" value="&lt;u&gt;preReqID&lt;/u&gt;" style="shape=partialRectangle;html=1;whiteSpace=wrap;connectable=0;overflow=hidden;fillColor=none;top=0;left=0;bottom=0;right=0;pointerEvents=1;fontSize=14;" parent="32PP_eOArhLJbw_r9V2V-122" vertex="1">
                    <mxGeometry x="88" width="87" height="40" as="geometry">
                        <mxRectangle width="87" height="40" as="alternateBounds"/>
                    </mxGeometry>
                </mxCell>
                <mxCell id="32PP_eOArhLJbw_r9V2V-126" value="&lt;font size=&quot;4&quot;&gt;PRE-&lt;span style=&quot;white-space: pre;&quot;&gt;REQS&lt;/span&gt;&lt;/font&gt;" style="text;strokeColor=none;fillColor=none;html=1;fontSize=24;fontStyle=1;verticalAlign=middle;align=center;" parent="1" vertex="1">
                    <mxGeometry x="1340" y="352" width="100" height="40" as="geometry"/>
                </mxCell>
                <mxCell id="32PP_eOArhLJbw_r9V2V-127" value="" style="endArrow=classic;html=1;rounded=0;fontSize=18;entryX=0.124;entryY=1.024;entryDx=0;entryDy=0;entryPerimeter=0;" parent="1" target="32PP_eOArhLJbw_r9V2V-64" edge="1">
                    <mxGeometry width="50" height="50" relative="1" as="geometry">
                        <mxPoint x="1300" y="300" as="sourcePoint"/>
                        <mxPoint x="990.1370000000002" y="177.9899999999999" as="targetPoint"/>
                        <Array as="points">
                            <mxPoint x="1300" y="300"/>
                            <mxPoint x="1300" y="320"/>
                            <mxPoint x="1220" y="320"/>
                            <mxPoint x="1220" y="310"/>
                            <mxPoint x="1220" y="200"/>
                            <mxPoint x="991" y="198"/>
                        </Array>
                    </mxGeometry>
                </mxCell>
                <mxCell id="32PP_eOArhLJbw_r9V2V-128" value="" style="endArrow=classic;html=1;rounded=0;fontSize=18;movable=1;resizable=1;rotatable=1;deletable=1;editable=1;connectable=1;exitX=0.784;exitY=0.993;exitDx=0;exitDy=0;exitPerimeter=0;" parent="1" source="32PP_eOArhLJbw_r9V2V-122" edge="1">
                    <mxGeometry width="50" height="50" relative="1" as="geometry">
                        <mxPoint x="1480.1" y="446" as="sourcePoint"/>
                        <mxPoint x="990" y="430" as="targetPoint"/>
                        <Array as="points">
                            <mxPoint x="1480.1" y="466"/>
                            <mxPoint x="990" y="466"/>
                        </Array>
                    </mxGeometry>
                </mxCell>
                <mxCell id="32PP_eOArhLJbw_r9V2V-129" value="" style="endArrow=classic;html=1;rounded=0;fontSize=18;entryX=0.088;entryY=1.001;entryDx=0;entryDy=0;entryPerimeter=0;" parent="1" target="32PP_eOArhLJbw_r9V2V-93" edge="1">
                    <mxGeometry width="50" height="50" relative="1" as="geometry">
                        <mxPoint x="1070" y="300" as="sourcePoint"/>
                        <mxPoint x="900.1370000000002" y="186.9999999999999" as="targetPoint"/>
                        <Array as="points">
                            <mxPoint x="1070" y="300"/>
                            <mxPoint x="1070" y="339"/>
                            <mxPoint x="910" y="340"/>
                            <mxPoint x="910" y="440"/>
                            <mxPoint x="970" y="440"/>
                        </Array>
                    </mxGeometry>
                </mxCell>
                <mxCell id="MQwZbloVMb_fH8cOTCtg-1" value="" style="endArrow=classic;html=1;rounded=0;fontSize=18;entryX=0.36;entryY=1.099;entryDx=0;entryDy=0;entryPerimeter=0;" parent="1" target="32PP_eOArhLJbw_r9V2V-82" edge="1">
                    <mxGeometry width="50" height="50" relative="1" as="geometry">
                        <mxPoint x="1385" y="300" as="sourcePoint"/>
                        <mxPoint x="1284.7999999999997" y="430.06999999999994" as="targetPoint"/>
                        <Array as="points">
                            <mxPoint x="1385" y="300"/>
                            <mxPoint x="1385" y="340"/>
                            <mxPoint x="1320" y="340"/>
                            <mxPoint x="1320" y="440"/>
                            <mxPoint x="1080" y="630"/>
                        </Array>
                    </mxGeometry>
                </mxCell>
                <mxCell id="3" value="Year" style="ellipse;whiteSpace=wrap;html=1;align=center;fillColor=#d5e8d4;strokeColor=#82b366;" vertex="1" parent="1">
                    <mxGeometry x="790" y="149" width="100" height="40" as="geometry"/>
                </mxCell>
                <mxCell id="4" value="Semester" style="ellipse;whiteSpace=wrap;html=1;align=center;fillColor=#d5e8d4;strokeColor=#82b366;" vertex="1" parent="1">
                    <mxGeometry x="777" y="210" width="100" height="40" as="geometry"/>
                </mxCell>
                <mxCell id="5" value="AutoKey" style="ellipse;whiteSpace=wrap;html=1;align=center;fillColor=#d5e8d4;strokeColor=#82b366;" vertex="1" parent="1">
                    <mxGeometry x="839" y="510.03" width="100" height="40" as="geometry"/>
                </mxCell>
            </root>
        </mxGraphModel>
    </diagram>
</mxfile>